<?xml version="1.0" standalone="no"?>
<!DOCTYPE svg PUBLIC "-//W3C//DTD SVG 20010904//EN"
 "http://www.w3.org/TR/2001/REC-SVG-20010904/DTD/svg10.dtd">
<svg version="1.0" xmlns="http://www.w3.org/2000/svg"
 width="183.000000pt" height="207.000000pt" viewBox="0 0 183.000000 207.000000"
 preserveAspectRatio="xMidYMid meet">

<g transform="translate(0.000000,207.000000) scale(0.100000,-0.100000)"
fill="#000000" stroke="none">
<path d="M815 2012 c-33 -16 -197 -104 -365 -196 -250 -137 -313 -176 -352
-217 -79 -83 -79 -88 -76 -585 3 -413 4 -431 24 -475 12 -25 37 -61 56 -80 32
-32 641 -374 731 -411 48 -19 125 -23 177 -8 48 14 696 371 741 409 21 17 46
50 58 74 20 42 21 56 21 518 l0 475 -28 45 c-16 24 -44 56 -63 70 -19 14 -189
110 -378 214 -343 187 -345 188 -415 192 -63 4 -78 1 -131 -25z m0 -154 c35
-19 56 -22 165 -22 117 -1 128 -3 171 -28 37 -22 53 -40 79 -93 41 -82 69
-105 175 -145 102 -39 154 -81 161 -131 9 -54 -24 -79 -262 -204 -219 -115
-272 -153 -306 -219 -25 -48 -28 -81 -36 -414 l-7 -264 -33 -29 c-40 -36 -86
-38 -132 -6 -68 46 -70 58 -70 382 0 247 -2 294 -16 313 -18 26 -60 29 -86 5
-16 -14 -18 -34 -18 -175 0 -95 -4 -167 -11 -180 -6 -11 -26 -26 -45 -34 -29
-12 -39 -12 -66 0 -18 7 -44 26 -58 40 -25 27 -25 28 -30 270 -5 262 -8 276
-58 276 -14 0 -34 -7 -44 -17 -16 -14 -18 -34 -18 -181 0 -185 -8 -217 -66
-251 -19 -11 -40 -35 -48 -55 -13 -31 -19 -36 -49 -36 -70 0 -68 -9 -65 431
l3 394 30 54 c16 29 43 64 60 76 54 40 435 245 473 254 73 18 165 13 207 -11z"/>
</g>
</svg>
