<svg width="159" height="172" viewBox="0 0 159 172" fill="none" xmlns="http://www.w3.org/2000/svg">
<path d="M150.707 172L85.2933 172C38.1872 172 8.98835e-05 133.813 8.78245e-05 86.7068L8.72582e-05 73.7534C8.54777e-05 33.0205 33.0206 5.48794e-06 73.7535 3.70745e-06C120.596 1.65988e-06 158.57 37.9736 158.57 84.8164L158.57 86.7068L158.57 164.137C158.57 168.48 155.049 172 150.707 172Z" fill="#1CBD3F"/>
<path d="M124.592 130.061C127.612 130.061 130.06 127.613 130.06 124.594L130.06 75.0714C130.06 44.542 105.311 19.793 74.7819 19.793C44.4117 19.793 19.7919 44.4129 19.7919 74.783C19.7919 105.312 44.5409 130.061 75.0703 130.061H124.592Z" fill="white"/>
<path fill-rule="evenodd" clip-rule="evenodd" d="M145.139 75.0689L145.139 124.591C145.139 135.939 135.94 145.138 124.592 145.138H75.0701C36.2125 145.138 4.71216 113.638 4.71216 74.7804C4.71216 36.0821 36.0833 4.71094 74.7816 4.71094C113.639 4.71094 145.14 36.2113 145.139 75.0689ZM130.06 124.591C130.06 127.611 127.612 130.059 124.592 130.059H75.0701C44.5406 130.059 19.7916 105.31 19.7916 74.7804C19.7916 44.4103 44.4115 19.7904 74.7816 19.7904C105.311 19.7904 130.06 44.5394 130.06 75.0689L130.06 124.591Z" fill="black"/>
<path fill-rule="evenodd" clip-rule="evenodd" d="M56.5 85C61.4706 85 65.5 80.9706 65.5 76C65.5 71.0294 61.4706 67 56.5 67C51.5294 67 47.5 71.0294 47.5 76C47.5 80.9706 51.5294 85 56.5 85ZM89.5 85C94.4706 85 98.5 80.9706 98.5 76C98.5 71.0294 94.4706 67 89.5 67C84.5294 67 80.5 71.0294 80.5 76C80.5 80.9706 84.5294 85 89.5 85Z" fill="black"/>
</svg>
