<svg width="1253" height="553" viewBox="0 0 1253 553" fill="none" xmlns="http://www.w3.org/2000/svg">
<rect width="1253" height="553" rx="40" fill="url(#paint0_linear_10948_12559)"/>
<path d="M520.707 363L455.293 363C408.187 363 370 324.813 370 277.707L370 264.753C370 224.021 403.021 191 443.753 191C490.596 191 528.57 228.974 528.57 275.816L528.57 277.707L528.57 355.137C528.57 359.48 525.049 363 520.707 363Z" fill="#1CBD3F"/>
<path d="M494.592 321.061C497.612 321.061 500.06 318.613 500.06 315.594L500.06 266.071C500.06 235.542 475.311 210.793 444.782 210.793C414.412 210.793 389.792 235.413 389.792 265.783C389.792 296.312 414.541 321.061 445.07 321.061H494.592Z" fill="white"/>
<path fill-rule="evenodd" clip-rule="evenodd" d="M515.139 266.069L515.139 315.591C515.139 326.939 505.94 336.138 494.592 336.138H445.07C406.212 336.138 374.712 304.638 374.712 265.78C374.712 227.082 406.083 195.711 444.782 195.711C483.639 195.711 515.14 227.211 515.139 266.069ZM500.06 315.591C500.06 318.611 497.612 321.059 494.592 321.059H445.07C414.541 321.059 389.792 296.31 389.792 265.78C389.792 235.41 414.411 210.79 444.782 210.79C475.311 210.79 500.06 235.539 500.06 266.069L500.06 315.591Z" fill="black"/>
<path fill-rule="evenodd" clip-rule="evenodd" d="M426.5 276C431.471 276 435.5 271.971 435.5 267C435.5 262.029 431.471 258 426.5 258C421.529 258 417.5 262.029 417.5 267C417.5 271.971 421.529 276 426.5 276ZM459.5 276C464.471 276 468.5 271.971 468.5 267C468.5 262.029 464.471 258 459.5 258C454.529 258 450.5 262.029 450.5 267C450.5 271.971 454.529 276 459.5 276Z" fill="black"/>
<path d="M674.17 321H655.57V264.6L633.37 321H618.01L595.81 265.32V321H577.81V235.92H602.53L625.93 293.4L648.13 235.92H674.17V321ZM711.854 321H692.654V235.92H711.854V321ZM792.911 321H725.351V302.76L766.391 254.04H727.151V235.92H792.431V253.44L750.431 302.88H792.911V321ZM840.497 322.92C821.777 322.92 806.777 311.64 806.777 290.28V235.92H825.737V288.72C825.737 299.04 831.497 304.2 840.497 304.2C849.497 304.2 855.257 299.04 855.257 288.72V235.92H874.217V290.28C874.217 311.64 859.217 322.92 840.497 322.92Z" fill="#06D458"/>
<defs>
<linearGradient id="paint0_linear_10948_12559" x1="0" y1="276.5" x2="1253" y2="276.5" gradientUnits="userSpaceOnUse">
<stop offset="0.44" stop-color="#FFFAEF" stop-opacity="0.5"/>
<stop offset="1" stop-color="#2DD670" stop-opacity="0.3"/>
</linearGradient>
</defs>
</svg>
